<mxfile host="Electron" agent="Mozilla/5.0 (Windows NT 10.0; Win64; x64) AppleWebKit/537.36 (KHTML, like Gecko) draw.io/26.0.16 Chrome/132.0.6834.196 Electron/34.2.0 Safari/537.36" version="26.0.16">
  <diagram name="Page-1" id="ZSVaUu8GPn3f-A2gTQbb">
    <mxGraphModel dx="819" dy="478" grid="0" gridSize="10" guides="1" tooltips="1" connect="1" arrows="1" fold="1" page="1" pageScale="1" pageWidth="1169" pageHeight="827" math="0" shadow="0">
      <root>
        <mxCell id="0" />
        <mxCell id="1" parent="0" />
        <mxCell id="BNTuh3MJB28yZCXB-q7Q-8" value="" style="rounded=0;whiteSpace=wrap;html=1;fillColor=#D5E8D4;strokeColor=#D5E8D4;" parent="1" vertex="1">
          <mxGeometry x="540" y="400" width="280" height="80" as="geometry" />
        </mxCell>
        <mxCell id="BNTuh3MJB28yZCXB-q7Q-9" value="" style="group" parent="1" vertex="1" connectable="0">
          <mxGeometry x="240" y="229.72000000000003" width="380" height="250.28" as="geometry" />
        </mxCell>
        <mxCell id="BNTuh3MJB28yZCXB-q7Q-4" value="" style="rounded=0;whiteSpace=wrap;html=1;fillColor=#D5E8D4;strokeColor=#D5E8D4;" parent="BNTuh3MJB28yZCXB-q7Q-9" vertex="1">
          <mxGeometry y="170.27999999999997" width="280" height="80" as="geometry" />
        </mxCell>
        <mxCell id="BNTuh3MJB28yZCXB-q7Q-5" value="" style="triangle;whiteSpace=wrap;html=1;rotation=-90;fillColor=#D5E8D4;strokeColor=#D5E8D4;" parent="BNTuh3MJB28yZCXB-q7Q-9" vertex="1">
          <mxGeometry x="220" y="20.279999999999973" width="178.76" height="138.2" as="geometry" />
        </mxCell>
        <mxCell id="BNTuh3MJB28yZCXB-q7Q-6" value="" style="rounded=0;whiteSpace=wrap;html=1;fillColor=#D5E8D4;strokeColor=#D5E8D4;" parent="BNTuh3MJB28yZCXB-q7Q-9" vertex="1">
          <mxGeometry x="310" y="0.2799999999999727" width="70" height="250" as="geometry" />
        </mxCell>
        <mxCell id="BNTuh3MJB28yZCXB-q7Q-7" value="" style="rounded=0;whiteSpace=wrap;html=1;fillColor=#D5E8D4;strokeColor=#D5E8D4;" parent="BNTuh3MJB28yZCXB-q7Q-9" vertex="1">
          <mxGeometry x="260" y="177" width="70" height="73.28" as="geometry" />
        </mxCell>
        <mxCell id="BNTuh3MJB28yZCXB-q7Q-27" value="" style="endArrow=classic;html=1;rounded=0;strokeWidth=3;strokeColor=#FF6666;" parent="BNTuh3MJB28yZCXB-q7Q-9" edge="1">
          <mxGeometry width="50" height="50" relative="1" as="geometry">
            <mxPoint x="440" y="110.27999999999997" as="sourcePoint" />
            <mxPoint x="350" y="40.27999999999997" as="targetPoint" />
          </mxGeometry>
        </mxCell>
        <mxCell id="A6dnGxfjqryYA0716gj6-13" value="" style="endArrow=none;dashed=1;html=1;dashPattern=1 3;strokeWidth=3;rounded=0;exitX=0.75;exitY=1;exitDx=0;exitDy=0;" edge="1" parent="BNTuh3MJB28yZCXB-q7Q-9">
          <mxGeometry width="50" height="50" relative="1" as="geometry">
            <mxPoint x="243" y="250.27999999999997" as="sourcePoint" />
            <mxPoint x="243" y="-49.72000000000003" as="targetPoint" />
          </mxGeometry>
        </mxCell>
        <mxCell id="BNTuh3MJB28yZCXB-q7Q-17" value="" style="endArrow=none;dashed=1;html=1;dashPattern=1 3;strokeWidth=3;rounded=0;exitX=0.75;exitY=1;exitDx=0;exitDy=0;" parent="1" edge="1">
          <mxGeometry width="50" height="50" relative="1" as="geometry">
            <mxPoint x="620" y="480.28" as="sourcePoint" />
            <mxPoint x="620" y="180.28" as="targetPoint" />
          </mxGeometry>
        </mxCell>
        <mxCell id="BNTuh3MJB28yZCXB-q7Q-19" value="" style="endArrow=none;html=1;rounded=0;entryX=1;entryY=1;entryDx=0;entryDy=0;exitX=0;exitY=1;exitDx=0;exitDy=0;" parent="1" source="BNTuh3MJB28yZCXB-q7Q-4" target="BNTuh3MJB28yZCXB-q7Q-13" edge="1">
          <mxGeometry width="50" height="50" relative="1" as="geometry">
            <mxPoint x="860" y="420" as="sourcePoint" />
            <mxPoint x="910" y="370" as="targetPoint" />
          </mxGeometry>
        </mxCell>
        <mxCell id="BNTuh3MJB28yZCXB-q7Q-21" value="" style="endArrow=classic;startArrow=classic;html=1;rounded=0;strokeWidth=3;" parent="1" edge="1">
          <mxGeometry width="50" height="50" relative="1" as="geometry">
            <mxPoint x="486" y="200" as="sourcePoint" />
            <mxPoint x="960" y="200" as="targetPoint" />
          </mxGeometry>
        </mxCell>
        <mxCell id="BNTuh3MJB28yZCXB-q7Q-22" value="&lt;font style=&quot;font-size: 16px;&quot;&gt;&lt;b style=&quot;&quot;&gt;perioda mezi meřeními&lt;/b&gt;&lt;/font&gt;" style="text;html=1;align=center;verticalAlign=middle;whiteSpace=wrap;rounded=0;" parent="1" vertex="1">
          <mxGeometry x="640" y="170" width="180" height="30" as="geometry" />
        </mxCell>
        <mxCell id="BNTuh3MJB28yZCXB-q7Q-23" value="&lt;font style=&quot;font-size: 17px;&quot;&gt;&lt;b style=&quot;&quot;&gt;spotřebovaný výkon&lt;/b&gt;&lt;/font&gt;" style="text;html=1;align=center;verticalAlign=middle;whiteSpace=wrap;rounded=0;rotation=-90;" parent="1" vertex="1">
          <mxGeometry x="131" y="281" width="178" height="30" as="geometry" />
        </mxCell>
        <mxCell id="BNTuh3MJB28yZCXB-q7Q-11" value="" style="rounded=0;whiteSpace=wrap;html=1;fillColor=#D5E8D4;strokeColor=#D5E8D4;" parent="1" vertex="1">
          <mxGeometry x="720" y="400.28" width="280" height="80" as="geometry" />
        </mxCell>
        <mxCell id="BNTuh3MJB28yZCXB-q7Q-12" value="" style="triangle;whiteSpace=wrap;html=1;rotation=-90;fillColor=#D5E8D4;strokeColor=#D5E8D4;" parent="1" vertex="1">
          <mxGeometry x="939.86" y="250.14" width="178.76" height="138.48" as="geometry" />
        </mxCell>
        <mxCell id="BNTuh3MJB28yZCXB-q7Q-13" value="" style="rounded=0;whiteSpace=wrap;html=1;fillColor=#D5E8D4;strokeColor=#D5E8D4;" parent="1" vertex="1">
          <mxGeometry x="1030" y="230.28" width="70" height="250" as="geometry" />
        </mxCell>
        <mxCell id="BNTuh3MJB28yZCXB-q7Q-14" value="" style="rounded=0;whiteSpace=wrap;html=1;fillColor=#D5E8D4;strokeColor=#D5E8D4;" parent="1" vertex="1">
          <mxGeometry x="980" y="410.28" width="70" height="70" as="geometry" />
        </mxCell>
        <mxCell id="BNTuh3MJB28yZCXB-q7Q-24" value="" style="endArrow=none;html=1;rounded=0;entryX=1;entryY=1;entryDx=0;entryDy=0;" parent="1" target="BNTuh3MJB28yZCXB-q7Q-13" edge="1">
          <mxGeometry width="50" height="50" relative="1" as="geometry">
            <mxPoint x="240" y="480" as="sourcePoint" />
            <mxPoint x="720" y="280" as="targetPoint" />
          </mxGeometry>
        </mxCell>
        <mxCell id="BNTuh3MJB28yZCXB-q7Q-26" value="&lt;font style=&quot;color: rgb(255, 102, 102); font-size: 16px;&quot;&gt;&lt;b style=&quot;&quot;&gt;spotřebovaný výkon v nízko-energetickém režimu&lt;/b&gt;&lt;/font&gt;" style="text;html=1;align=center;verticalAlign=middle;whiteSpace=wrap;rounded=0;" parent="1" vertex="1">
          <mxGeometry x="430" y="500" width="330" height="30" as="geometry" />
        </mxCell>
        <mxCell id="BNTuh3MJB28yZCXB-q7Q-28" value="&lt;font style=&quot;color: rgb(255, 102, 102); font-size: 16px;&quot;&gt;&lt;b style=&quot;&quot;&gt;spotřebovaný výkon v aktivním režimu&lt;/b&gt;&lt;/font&gt;" style="text;html=1;align=center;verticalAlign=middle;whiteSpace=wrap;rounded=0;fillColor=none;" parent="1" vertex="1">
          <mxGeometry x="680" y="330" width="170" height="30" as="geometry" />
        </mxCell>
        <mxCell id="BNTuh3MJB28yZCXB-q7Q-2" value="" style="endArrow=classic;html=1;rounded=0;strokeWidth=3;" parent="1" edge="1">
          <mxGeometry width="50" height="50" relative="1" as="geometry">
            <mxPoint x="240" y="480" as="sourcePoint" />
            <mxPoint x="1140" y="480" as="targetPoint" />
          </mxGeometry>
        </mxCell>
        <mxCell id="BNTuh3MJB28yZCXB-q7Q-25" value="" style="endArrow=classic;html=1;rounded=0;strokeWidth=3;strokeColor=#FF6666;" parent="1" edge="1">
          <mxGeometry width="50" height="50" relative="1" as="geometry">
            <mxPoint x="430" y="510" as="sourcePoint" />
            <mxPoint x="340" y="440" as="targetPoint" />
          </mxGeometry>
        </mxCell>
        <mxCell id="A6dnGxfjqryYA0716gj6-1" value="&lt;font style=&quot;font-size: 17px;&quot;&gt;&lt;b style=&quot;&quot;&gt;čas&lt;/b&gt;&lt;/font&gt;" style="text;html=1;align=right;verticalAlign=middle;whiteSpace=wrap;rounded=0;" vertex="1" parent="1">
          <mxGeometry x="1089" y="480" width="80" height="30" as="geometry" />
        </mxCell>
        <mxCell id="A6dnGxfjqryYA0716gj6-3" value="" style="endArrow=none;dashed=1;html=1;dashPattern=1 3;strokeWidth=3;rounded=0;exitX=0.75;exitY=1;exitDx=0;exitDy=0;" edge="1" parent="1">
          <mxGeometry width="50" height="50" relative="1" as="geometry">
            <mxPoint x="963" y="480" as="sourcePoint" />
            <mxPoint x="963" y="180" as="targetPoint" />
          </mxGeometry>
        </mxCell>
        <mxCell id="A6dnGxfjqryYA0716gj6-4" value="" style="endArrow=none;dashed=1;html=1;dashPattern=1 3;strokeWidth=3;rounded=0;exitX=0.75;exitY=1;exitDx=0;exitDy=0;" edge="1" parent="1">
          <mxGeometry width="50" height="50" relative="1" as="geometry">
            <mxPoint x="1100" y="480.28" as="sourcePoint" />
            <mxPoint x="1100" y="180.28" as="targetPoint" />
          </mxGeometry>
        </mxCell>
        <mxCell id="A6dnGxfjqryYA0716gj6-12" value="" style="rounded=0;whiteSpace=wrap;html=1;fillColor=#D5E8D4;strokeColor=#D5E8D4;" vertex="1" parent="1">
          <mxGeometry x="986" y="371" width="70" height="73.28" as="geometry" />
        </mxCell>
        <mxCell id="BNTuh3MJB28yZCXB-q7Q-20" value="" style="endArrow=none;html=1;rounded=0;exitX=0;exitY=1;exitDx=0;exitDy=0;" parent="1" source="BNTuh3MJB28yZCXB-q7Q-4" edge="1">
          <mxGeometry width="50" height="50" relative="1" as="geometry">
            <mxPoint x="460" y="420" as="sourcePoint" />
            <mxPoint x="240" y="270" as="targetPoint" />
          </mxGeometry>
        </mxCell>
        <mxCell id="BNTuh3MJB28yZCXB-q7Q-1" value="" style="endArrow=classic;html=1;rounded=0;strokeWidth=3;" parent="1" edge="1">
          <mxGeometry width="50" height="50" relative="1" as="geometry">
            <mxPoint x="240" y="481" as="sourcePoint" />
            <mxPoint x="240" y="120" as="targetPoint" />
          </mxGeometry>
        </mxCell>
      </root>
    </mxGraphModel>
  </diagram>
</mxfile>
